<svg width="101" height="69" viewBox="0 0 101 69" fill="none" xmlns="http://www.w3.org/2000/svg">
<path d="M23.9299 12.8613C21.7084 13.4601 20.3807 14.0068 19.4912 14.6533C18.376 15.4647 17.9465 16.4322 17.313 17.8641C16.9615 18.6451 16.5797 19.5347 16.0026 20.563C14.5968 23.0579 13.0261 24.9367 11.2991 26.1907C9.54619 27.462 7.62838 28.0911 5.54132 28.0694C5.43719 28.0694 5.34609 28.0999 5.26365 28.1606C4.80805 28.4904 4.61711 29.6705 4.41751 31.1197C4.18755 32.5472 3.95324 34.1788 3.14619 35.6193C2.59514 36.6259 1.93996 37.4287 1.21101 37.958C0.846531 38.2227 0.456038 38.4266 0.0351562 38.5654L0.0568062 38.752C0.946299 43.9588 1.35417 46.3452 3.36746 49.7643C4.3177 51.4305 4.75599 52.6584 5.14216 53.843C5.65416 55.379 6.1705 56.8759 8.0406 59.3405L8.22717 59.5271C10.5268 62.534 13.3862 66.2308 16.2456 66.7168C17.044 66.8687 17.8467 66.7342 18.7145 66.2655C19.5649 65.8403 20.2852 65.3761 20.9274 64.9075C21.5132 64.4823 22.0382 64.0527 22.5328 63.6535C22.9667 63.289 23.4093 62.9202 23.8779 62.5817C25.735 61.2367 27.9739 60.3646 31.7705 61.9917C34.2828 63.0938 36.6258 65.4629 38.5176 68.2355C43.7374 67.09 44.5532 66.4998 47.5644 64.3173C47.9289 64.0526 48.2978 63.7446 48.7186 63.4409C52.3764 60.7897 56.3379 61.2888 60.1388 61.7443C61.5707 61.9266 63.111 62.1087 64.6037 62.1261C67.9403 62.1608 69.5197 62.1783 70.5567 61.4276C71.2336 60.9373 71.6806 60.1129 72.2273 58.7504C72.5787 57.9694 72.7913 57.2882 72.9996 56.607C73.5116 54.8975 74.0236 53.5176 75.4729 52.4676C76.7095 51.5694 78.6316 50.9142 81.8164 50.4847C82.1505 50.4413 82.489 50.3979 82.8491 50.3589C85.7866 50.0161 89.939 49.6081 94.2823 49.261C94.7987 47.4647 95.6144 45.7334 96.9769 44.1757C100.817 39.8498 101.789 35.116 99.8362 30.4776C97.7275 25.5051 95.6622 17.5344 95.5971 11.36C94.1913 11.1994 92.6769 11.0389 89.7525 11.0086C85.1705 10.9565 82.0334 9.32929 78.9831 7.72386C76.8309 6.6044 74.566 5.43723 71.737 4.80807C66.4087 3.58882 63.5363 3.64087 59.8915 3.68426C58.8415 3.71463 57.7654 3.72334 56.5201 3.68863C51.1918 3.64958 47.0047 3.23301 41.2816 1.32819C40.3791 1.00711 39.585 0.686086 38.9342 0.308594C37.472 1.37165 36.0661 2.30886 34.7471 3.22438C33.3716 4.13991 32.0526 5.01635 30.868 5.87547C30.3604 6.24429 30.2953 6.69552 30.1651 7.48088C30.048 8.28793 29.8657 9.07763 29.3711 9.8196C29.0847 10.2492 28.6941 10.6658 28.1474 11.0606C27.2449 11.7245 25.9128 12.3276 23.9299 12.8613Z" fill="#99E575"/>
</svg>
