<svg width="28" height="27" viewBox="0 0 28 27" fill="none" xmlns="http://www.w3.org/2000/svg">
<path d="M28 2.89286C28 2.10937 27.6875 1.44643 27.125 0.84375C26.5 0.301339 25.8125 0 25 0L3 0C2.125 0 1.4375 0.301339 0.875 0.84375C0.25 1.44643 0 2.10938 0 2.89286L0 24.1071C0 24.9509 0.25 25.6138 0.875 26.1562C1.4375 26.7589 2.125 27 3 27H15.3125V16.3326H11.5L11.5 12.2344L15.3125 12.2344V9.22098C15.3125 7.53348 15.75 6.26786 16.75 5.30357C17.75 4.33929 19.0625 3.85714 20.75 3.85714C22 3.85714 23.125 3.91741 24 4.03795V7.65402L21.75 7.65402C20.9375 7.65402 20.375 7.83482 20.0625 8.19643C19.8125 8.55804 19.6875 9.04018 19.6875 9.64286V12.2344H24L23.4375 16.3326H19.6875V27H25C25.8125 27 26.5 26.7589 27.125 26.1562C27.6875 25.6138 28 24.9509 28 24.1071V2.89286Z" fill="white"/>
</svg>
