<svg width="70" height="92" viewBox="0 0 70 92" fill="none" xmlns="http://www.w3.org/2000/svg">
<path d="M61.7 90.2H7.39999C3.89999 90.2 1 87.3 1 83.8V7.4C1 3.9 3.89999 1 7.39999 1H42.3L68.1 24.8V83.7C68.1 87.3 65.2 90.2 61.7 90.2Z" stroke="#5B5A5F" stroke-width="2" stroke-miterlimit="10"/>
<path d="M42.1992 1V24.8H68.0992" stroke="#5B5A5F" stroke-width="2" stroke-miterlimit="10"/>
<path d="M15.5996 81.9007C15.5996 81.9007 33.3996 54.9007 32.2996 80.7007C32.2996 80.7007 37.8996 73.9007 37.6996 79.1007C37.6996 79.1007 39.5996 78.2007 39.2996 79.7007C39.2996 79.7007 40.3996 80.5007 41.3996 79.8007C41.3996 79.8007 48.4996 82.4007 53.3996 80.1007" stroke="#5B5A5F" stroke-width="2" stroke-miterlimit="10" stroke-linecap="round" stroke-linejoin="round"/>
<path d="M17.2996 23.4996C21.2761 23.4996 24.4996 20.2761 24.4996 16.2996C24.4996 12.3232 21.2761 9.09961 17.2996 9.09961C13.3232 9.09961 10.0996 12.3232 10.0996 16.2996C10.0996 20.2761 13.3232 23.4996 17.2996 23.4996Z" stroke="#5B5A5F" stroke-width="2" stroke-miterlimit="10" stroke-linecap="round" stroke-linejoin="round"/>
<path d="M13.4004 22.2998V31.3998L17.3004 28.4998L21.2004 31.3998V22.2998" stroke="#5B5A5F" stroke-width="2" stroke-miterlimit="10" stroke-linecap="round" stroke-linejoin="round"/>
<path d="M12.5996 42.2002H56.3996" stroke="#5B5A5F" stroke-width="2" stroke-miterlimit="10" stroke-linecap="round" stroke-linejoin="round"/>
<path d="M12.5996 50.0996H56.3996" stroke="#5B5A5F" stroke-width="2" stroke-miterlimit="10" stroke-linecap="round" stroke-linejoin="round"/>
<path d="M12.5996 57.9004H56.3996" stroke="#5B5A5F" stroke-width="2" stroke-miterlimit="10" stroke-linecap="round" stroke-linejoin="round"/>
</svg>
