<svg width="60" height="85" viewBox="0 0 60 85" fill="none" xmlns="http://www.w3.org/2000/svg">
<path d="M53.2803 76.7222H6.71973C3.60901 76.7222 1 74.1111 1 70.9979V6.72436C1 3.61111 3.60901 1 6.71973 1H53.2803C56.391 1 59 3.61111 59 6.72436V70.9979C59 74.1111 56.391 76.7222 53.2803 76.7222Z" fill="white" stroke="black" stroke-width="2" stroke-miterlimit="10"/>
<path d="M19.9196 83.9727H12.6902C11.5335 83.9727 10.666 82.9795 10.666 81.887V76.7227H21.9438V81.887C21.9438 82.9795 21.0763 83.9727 19.9196 83.9727Z" fill="white" stroke="black" stroke-width="2" stroke-miterlimit="10"/>
<path d="M47.3082 83.9727H40.0789C38.9222 83.9727 38.0547 82.9795 38.0547 81.887V76.7227H49.3325V81.887C49.3325 82.9795 48.4649 83.9727 47.3082 83.9727Z" fill="white" stroke="black" stroke-width="2" stroke-miterlimit="10"/>
<path d="M26.0235 50.9441C23.5315 50.9441 19.7437 48.4208 18.1489 44.2825C16.853 40.9517 16.7534 36.9144 17.9495 33.3817C18.8466 30.7574 20.5412 28.5369 22.2357 26.4173C22.8338 25.6098 23.5315 24.8023 24.1296 23.9949L24.5283 23.4902C29.3129 16.0211 25.1264 13.2959 25.4255 13.094C25.6248 12.8922 35.7921 15.4155 35.7921 24.2977C36.3902 23.1874 37.1876 22.279 37.8854 21.7743C38.1844 21.5725 38.4835 21.5725 38.6828 21.7743C38.9819 21.8753 39.0815 22.1781 39.0815 22.4809C38.9819 25.307 39.6796 28.7387 41.0751 31.5649C41.2745 31.9686 41.4738 32.3724 41.6732 32.7761C42.5703 34.492 43.4674 36.2078 43.6668 38.4284C43.9658 42.7685 41.8726 48.3199 36.6892 50.2376C36.2905 50.4395 35.2937 50.6413 34.4963 50.6413C32.6024 50.6413 32.403 49.5311 32.403 49.1273C32.403 48.2189 33.3001 47.6133 33.7985 47.3105L33.9979 47.2096C35.6924 45.8974 36.6892 43.2732 36.2905 41.0526C36.0912 40.1442 35.7921 39.3368 35.3934 38.3274C34.9947 37.3181 34.3966 35.2994 34.3966 35.2994C34.3966 35.2994 31.4062 38.1256 32.8017 41.7592C31.1072 40.548 30.0107 39.1349 29.8114 37.419C29.612 36.5106 29.612 35.6022 29.612 34.7948C29.612 34.492 29.612 34.2901 29.612 33.9873C29.612 33.6845 29.612 33.3817 29.612 33.0789C29.612 31.7668 29.612 30.6565 29.313 29.849C29.1136 30.8583 28.6152 31.8677 28.3162 32.4733C27.9174 33.2808 27.4191 33.9873 26.9207 34.5929C26.6216 34.9966 26.3226 35.4004 25.9239 35.905C24.9271 37.52 22.7341 41.6582 25.0267 45.3928C25.8242 46.604 26.6216 47.2096 27.2197 47.7142C27.8178 48.118 28.4158 48.6226 28.2165 49.531C27.9174 50.3385 27.12 50.9441 26.0235 50.9441Z" fill="white" stroke="black" stroke-width="2" stroke-miterlimit="10"/>
<path d="M30.4032 71.0837C32.8502 71.0837 34.8338 68.9197 34.8338 66.2503C34.8338 63.5809 32.8502 61.417 30.4032 61.417C27.9563 61.417 25.9727 63.5809 25.9727 66.2503C25.9727 68.9197 27.9563 71.0837 30.4032 71.0837Z" fill="white" stroke="black" stroke-width="2" stroke-miterlimit="10"/>
</svg>
