<svg width="64" height="90" viewBox="0 0 64 90" fill="none" xmlns="http://www.w3.org/2000/svg">
<path d="M21.7606 88.7053C15.7772 88.7053 7.03211 82.7219 3.34998 73.1713C0.358256 65.3468 0.243192 56.1415 2.88972 47.9718C4.84585 41.8733 8.98824 36.8104 12.7854 31.8625C14.2813 30.0214 15.7772 28.0653 17.158 26.2243L17.9634 25.0736C29.1249 7.81363 19.4593 1.48498 19.9195 1.02472C20.3798 0.56445 44.3136 6.43284 44.3136 27.0297C45.6944 24.4983 47.6505 22.312 49.2615 21.2764C49.8368 20.9312 50.6423 20.8161 51.2176 21.1613C51.7929 21.5065 52.1381 22.1969 52.1381 22.8873C51.7929 29.5612 53.634 37.3857 56.8559 43.8294C57.3161 44.7499 57.8914 45.7855 58.3517 46.7061C60.538 50.7334 62.6092 54.6457 62.9544 59.8236C63.5297 69.9495 58.6969 82.8369 46.6149 87.2094C45.6944 87.5546 43.3931 88.0149 41.437 88.0149C36.9494 88.0149 36.6042 85.3684 36.6042 84.5629C36.6042 82.3767 38.6754 81.1109 39.826 80.3055L40.2863 79.9603C44.3136 76.9685 46.6149 70.9851 45.5793 65.577C45.2341 63.5058 44.3136 61.5496 43.3931 59.3634C42.3575 57.0621 40.9767 52.2293 40.9767 52.2293C40.9767 52.2293 33.9576 58.7881 37.1795 67.1879C33.1522 64.5414 30.7358 60.9743 30.0454 57.1771C29.7002 54.9909 29.7002 53.0347 29.7002 51.0786C29.7002 50.5033 29.7002 49.9279 29.7002 49.2375C29.7002 48.5471 29.7002 47.8567 29.7002 47.1663C29.7002 44.0596 29.5851 41.5281 28.8947 39.572C28.4345 41.9884 27.3989 44.2897 26.5934 45.6705C25.5578 47.6266 24.4071 49.1225 23.3715 50.5033C22.6811 51.4238 21.8757 52.4594 21.0702 53.6101C18.6538 57.2922 13.706 66.9578 19.1141 75.5877C20.8401 78.4644 22.7962 79.8452 24.177 80.8808C25.5578 81.9164 27.0537 83.0671 26.5934 85.0232C26.2482 87.4396 24.4071 88.7053 21.7606 88.7053Z" stroke="black" stroke-width="1.5" stroke-miterlimit="10"/>
</svg>
