<svg width="89" height="51" viewBox="0 0 89 51" fill="none" xmlns="http://www.w3.org/2000/svg">
<path d="M23.5515 4.11662V4.4268C23.5515 5.01613 23.1181 5.48139 22.5919 5.54342V13.6079C23.149 13.67 23.5824 14.1663 23.5824 14.7246V15.0347C23.5824 15.5931 23.149 16.0583 22.5919 16.1203H6.99056C6.43337 16.0583 6 15.5931 6 15.0347V14.7246C6 14.1352 6.43337 13.67 6.99056 13.6079V5.54342C6.43337 5.45037 6 4.98511 6 4.4268V4.11662C6 3.49628 6.49528 3 7.11438 3H8.60022H22.4371C23.0562 3 23.5515 3.49628 23.5515 4.11662Z" fill="white"/>
<path d="M6.99056 16.1203C6.43337 16.0583 6 15.5931 6 15.0347V14.7246C6 14.1352 6.43337 13.67 6.99056 13.6079V5.54342C6.43337 5.45037 6 4.98511 6 4.4268V4.11662C6 3.49628 6.49528 3 7.11438 3H8.60022H22.4371C23.0562 3 23.5515 3.49628 23.5515 4.11662V4.4268C23.5515 5.01613 23.1181 5.48139 22.5919 5.54342V13.6079C23.149 13.67 23.5824 14.1663 23.5824 14.7246V15.0347C23.5824 15.5931 23.149 16.0583 22.5919 16.1203M6.99056 16.1203V20.5M6.99056 16.1203H22.5919M22.5919 20.5V16.1203" stroke="#5B5A5F" stroke-width="1.5" stroke-miterlimit="10"/>
<path d="M6.95898 5.54395H22.5912" stroke="#5B5A5F" stroke-width="1.5" stroke-miterlimit="10"/>
<path d="M45.5515 4.11662V4.4268C45.5515 5.01613 45.1181 5.48139 44.5919 5.54342V13.6079C45.149 13.67 45.5824 14.1663 45.5824 14.7246V15.0347C45.5824 15.5931 45.149 16.0583 44.5919 16.1203H28.9906C28.4334 16.0583 28 15.5931 28 15.0347V14.7246C28 14.1352 28.4334 13.67 28.9906 13.6079V5.54342C28.4334 5.45037 28 4.98511 28 4.4268V4.11662C28 3.49628 28.4953 3 29.1144 3H30.6002H44.4371C45.0562 3 45.5515 3.49628 45.5515 4.11662Z" fill="white"/>
<path d="M28.9906 16.1203C28.4334 16.0583 28 15.5931 28 15.0347V14.7246C28 14.1352 28.4334 13.67 28.9906 13.6079V5.54342C28.4334 5.45037 28 4.98511 28 4.4268V4.11662C28 3.49628 28.4953 3 29.1144 3H30.6002H44.4371C45.0562 3 45.5515 3.49628 45.5515 4.11662V4.4268C45.5515 5.01613 45.1181 5.48139 44.5919 5.54342V13.6079C45.149 13.67 45.5824 14.1663 45.5824 14.7246V15.0347C45.5824 15.5931 45.149 16.0583 44.5919 16.1203M28.9906 16.1203V20.5M28.9906 16.1203H44.5919M44.5919 20.5V16.1203" stroke="#5B5A5F" stroke-width="1.5" stroke-miterlimit="10"/>
<path d="M28.959 5.54395H44.5912" stroke="#5B5A5F" stroke-width="1.5" stroke-miterlimit="10"/>
<path d="M11.1909 42.6616H5C2.79086 42.6616 1 40.8707 1 38.6616V26.877C1 23.5632 3.68629 20.877 7 20.877H81.6848C84.9985 20.877 87.6848 23.5632 87.6848 26.877V38.6616C87.6848 40.8707 85.894 42.6616 83.6848 42.6616H79.6394M26.8695 42.6616H63.5485" stroke="#5B5A5F" stroke-width="1.5"/>
<path d="M50.3125 2C50.3125 1.30964 50.8721 0.75 51.5625 0.75H67.3563C70.5776 0.75 73.5042 2.62482 74.8508 5.55105L81.9764 21.0346H50.3125V2Z" fill="white" stroke="#5B5A5F" stroke-width="1.5"/>
<circle cx="19.1543" cy="42.2076" r="7.87308" fill="white" stroke="#5B5A5F" stroke-width="1.5"/>
<path d="M78.7662 42.2076C78.7662 46.5945 75.4068 50.0806 71.347 50.0806C67.2871 50.0806 63.9277 46.5945 63.9277 42.2076C63.9277 37.8206 67.2871 34.3345 71.347 34.3345C75.4068 34.3345 78.7662 37.8206 78.7662 42.2076Z" fill="white" stroke="#5B5A5F" stroke-width="1.5"/>
<path d="M50.4688 21.7847V41.7539" stroke="#5B5A5F" stroke-width="1.5"/>
</svg>
