<svg width="28" height="27" viewBox="0 0 28 27" fill="none" xmlns="http://www.w3.org/2000/svg">
<path d="M26 0C26.5 0 27 0.241071 27.375 0.602679C27.75 0.964286 28 1.44643 28 1.92857V25.0714C28 25.6138 27.75 26.096 27.375 26.4576C27 26.8192 26.5 27 26 27H2C1.4375 27 0.9375 26.8192 0.5625 26.4576C0.1875 26.096 0 25.6138 0 25.0714L0 1.92857C0 1.44643 0.1875 0.964286 0.5625 0.602679C0.9375 0.241071 1.4375 0 2 0L26 0ZM8.4375 23.1429H8.5L8.5 10.2455H4.3125L4.3125 23.1429H8.4375ZM6.375 8.49777C7 8.49777 7.5625 8.31696 8.0625 7.83482C8.5625 7.35268 8.8125 6.81027 8.8125 6.20759C8.8125 5.60491 8.5625 5.0625 8.0625 4.58036C7.5625 4.09821 7 3.85714 6.375 3.85714C5.6875 3.85714 5.125 4.09821 4.6875 4.58036C4.1875 5.0625 4 5.60491 4 6.20759C4 6.81027 4.1875 7.35268 4.6875 7.83482C5.125 8.31696 5.6875 8.49777 6.375 8.49777ZM24 23.1429V16.0915C24 14.1027 23.6875 12.6562 23.125 11.692C22.3125 10.5469 20.9375 9.9442 19.0625 9.9442C18.0625 9.9442 17.25 10.1853 16.5 10.6071C15.875 10.9687 15.375 11.4509 15.125 11.9933H15.0625V10.2455L11.0625 10.2455L11.0625 23.1429H15.1875V16.7545C15.1875 15.7902 15.3125 15.0067 15.625 14.4643C16 13.8013 16.6875 13.4397 17.6875 13.4397C18.625 13.4397 19.25 13.8616 19.5625 14.5848C19.75 15.067 19.875 15.8504 19.875 16.875V23.1429H24Z" fill="white"/>
</svg>
