<svg width="0" height="0" class="hidden">
  <symbol viewBox="0 0 54 41" xmlns="http://www.w3.org/2000/svg" id="icon1">
    <path d="M.003 31.826a2.887 2.887 0 0 0 2.888 2.888h2.414a6.012 6.012 0 0 0 11.989 0h18.203a6.012 6.012 0 0 0 11.989 0h3.228a2.888 2.888 0 0 0 2.888-2.997l-.387-10.36a.577.577 0 0 0-.457-.544l-.542-.104-3.119-9.927V7.456a2.888 2.888 0 0 0-2.887-2.888H33.816v-1.68A2.888 2.888 0 0 0 30.93 0H2.89A2.888 2.888 0 0 0 .003 2.888v19.86a.578.578 0 0 0 0 .121v8.957zM11.3 39.11a4.863 4.863 0 1 1 0-9.725 4.863 4.863 0 0 1 0 9.725zm30.198 0a4.863 4.863 0 1 1 0-9.725 4.863 4.863 0 0 1 0 9.725zm9.413-18.694l-10.972-2.35V11.47h8.154l2.819 8.946zm-4.7-14.692a1.733 1.733 0 0 1 1.732 1.733v2.858H39.35a.578.578 0 0 0-.578.578v7.646a.577.577 0 0 0 .456.578l12.856 2.748.37 9.91a1.73 1.73 0 0 1-1.733 1.797h-3.246a6.017 6.017 0 0 0-11.96 0H17.276a6.017 6.017 0 0 0-11.954 0H2.891a1.733 1.733 0 0 1-1.733-1.733v-8.512h32.08a.577.577 0 0 0 .578-.578V5.723H46.21zM1.164 2.888a1.733 1.733 0 0 1 1.733-1.733h28.032a1.733 1.733 0 0 1 1.732 1.733V22.17H1.158l.006-19.282z"></path>
  </symbol>
  <symbol viewBox="0 0 64 90" fill="none" xmlns="http://www.w3.org/2000/svg" id="icon2">
    <path d="M21.76 88.705c-5.983 0-14.728-5.983-18.41-15.534-2.992-7.824-3.107-17.03-.46-25.2 1.956-6.098 6.098-11.16 9.895-16.108a186.708 186.708 0 0 0 4.373-5.639l.805-1.15C29.125 7.814 19.46 1.485 19.92 1.024c.46-.46 24.395 5.409 24.395 26.006 1.38-2.532 3.337-4.718 4.947-5.754.576-.345 1.381-.46 1.957-.115.575.345.92 1.036.92 1.726-.345 6.674 1.496 14.499 4.718 20.942.46.92 1.035 1.956 1.496 2.877 2.186 4.027 4.257 7.94 4.602 13.118.576 10.126-4.257 23.013-16.34 27.385-.92.346-3.22.806-5.177.806-4.488 0-4.833-2.647-4.833-3.452 0-2.186 2.071-3.452 3.222-4.258l.46-.345c4.028-2.991 6.329-8.975 5.293-14.383-.345-2.071-1.265-4.027-2.186-6.214-1.035-2.3-2.416-7.134-2.416-7.134s-7.02 6.56-3.797 14.959c-4.028-2.647-6.444-6.214-7.135-10.01-.345-2.187-.345-4.143-.345-6.1v-3.912c0-3.106-.115-5.638-.805-7.594-.46 2.416-1.496 4.718-2.302 6.098-1.035 1.957-2.186 3.453-3.221 4.833-.69.92-1.496 1.956-2.302 3.107-2.416 3.682-7.364 13.348-1.956 21.978 1.726 2.876 3.682 4.257 5.063 5.293 1.38 1.035 2.877 2.186 2.416 4.142-.345 2.417-2.186 3.682-4.832 3.682z" stroke-width="1.5" stroke-miterlimit="10"></path>
  </symbol>
  <symbol viewBox="0 0 61 85" fill="none" xmlns="http://www.w3.org/2000/svg" id="icon3">
    <path d="M59.27 9.96V8.93a3.688 3.688 0 0 0-3.699-3.708H22.376V1.824A.811.811 0 0 0 21.554 1h-11.1c-.513 0-.821.412-.821.824v3.398H4.7A3.688 3.688 0 0 0 1 8.93v1.03c0 1.854 1.439 3.398 3.289 3.707V40.44A3.693 3.693 0 0 0 1 44.148v1.03c0 1.853 1.439 3.398 3.289 3.604v26.774A3.693 3.693 0 0 0 1 79.263v1.03A3.688 3.688 0 0 0 4.7 84h50.974c2.055 0 3.7-1.648 3.7-3.707v-1.03c0-1.854-1.44-3.398-3.289-3.707V48.782c1.85-.206 3.289-1.751 3.289-3.605v-1.03c0-1.853-1.44-3.5-3.289-3.706V13.666c1.747-.206 3.186-1.75 3.186-3.707z" stroke-width="1.5" stroke-miterlimit="10"></path>
    <path d="M39.746 51.56c0 4.944-4.008 9.063-9.044 9.063-4.933 0-9.044-4.016-9.044-9.062 0-1.442.411-2.987 1.028-4.222v-.103l2.878-6.385 5.035-11.328 7.914 17.61v.103a8.118 8.118 0 0 1 1.233 4.325zM4.188 13.667h51.899M4.188 75.557h53.029M4.188 40.44h21.376M4.805 48.68h17.162m34.119-8.24H35.84m20.245 8.341H39.54" stroke-width="1.5" stroke-miterlimit="10"></path>
  </symbol>
  <symbol viewBox="0 0 89 51" fill="none" xmlns="http://www.w3.org/2000/svg" id="icon4">
    <path d="M23.552 4.117v.31a1.11 1.11 0 0 1-.96 1.116v8.065c.557.062.99.558.99 1.117v.31c0 .558-.433 1.023-.99 1.085H6.99A1.105 1.105 0 0 1 6 15.035v-.31c0-.59.433-1.055.99-1.117V5.543C6.434 5.45 6 4.985 6 4.427v-.31C6 3.497 6.495 3 7.114 3h15.323c.62 0 1.114.496 1.114 1.117z"></path>
    <path d="M6.99 16.12A1.105 1.105 0 0 1 6 15.035v-.31c0-.59.433-1.055.99-1.117V5.543C6.434 5.45 6 4.985 6 4.427v-.31C6 3.497 6.495 3 7.114 3h15.323c.62 0 1.114.496 1.114 1.117v.31a1.11 1.11 0 0 1-.96 1.116v8.065c.558.062.991.558.991 1.117v.31c0 .558-.433 1.023-.99 1.085m-15.601 0v4.38m0-4.38h15.6m0 4.38v-4.38M6.959 5.544h15.632"
       stroke-width="1.5" stroke-miterlimit="10"></path>
    <path d="M45.551 4.117v.31a1.11 1.11 0 0 1-.96 1.116v8.065c.558.062.991.558.991 1.117v.31c0 .558-.433 1.023-.99 1.085H28.99a1.105 1.105 0 0 1-.99-1.085v-.31c0-.59.433-1.055.99-1.117V5.543c-.557-.093-.99-.558-.99-1.116v-.31C28 3.497 28.495 3 29.114 3h15.323c.62 0 1.114.496 1.114 1.117z"></path>
    <path d="M28.99 16.12a1.105 1.105 0 0 1-.99-1.085v-.31c0-.59.433-1.055.99-1.117V5.543c-.557-.093-.99-.558-.99-1.116v-.31C28 3.497 28.495 3 29.114 3h15.323c.62 0 1.114.496 1.114 1.117v.31a1.11 1.11 0 0 1-.96 1.116v8.065c.558.062.991.558.991 1.117v.31c0 .558-.433 1.023-.99 1.085m-15.601 0v4.38m0-4.38h15.6m0 4.38v-4.38M28.959 5.544h15.632" stroke-width="1.5" stroke-miterlimit="10"></path>
    <path d="M11.19 42.662H5a4 4 0 0 1-4-4V26.877a6 6 0 0 1 6-6h74.685a6 6 0 0 1 6 6v11.785a4 4 0 0 1-4 4h-4.046m-52.77 0h36.68" stroke-width="1.5"></path>
    <path d="M50.313 2c0-.69.56-1.25 1.25-1.25h15.793a8.25 8.25 0 0 1 7.495 4.801l7.125 15.484H50.313V2z" stroke-width="1.5"></path>
    <circle cx="19.154" cy="42.208" r="7.873"  stroke-width="1.5"></circle>
    <path d="M78.766 42.208c0 4.386-3.36 7.873-7.419 7.873-4.06 0-7.42-3.487-7.42-7.873 0-4.387 3.36-7.873 7.42-7.873 4.06 0 7.42 3.486 7.42 7.873z" stroke-width="1.5"></path>
    <path d="M50.469 21.785v19.969" stroke-width="1.5"></path>
  </symbol>
  <symbol viewBox="0 0 60 85" fill="none" xmlns="http://www.w3.org/2000/svg" id="icon5">
    <path d="M53.28 76.722H6.72c-3.111 0-5.72-2.61-5.72-5.724V6.724C1 3.611 3.609 1 6.72 1h46.56C56.391 1 59 3.611 59 6.724v64.274c0 3.113-2.609 5.724-5.72 5.724zm-33.36 7.251h-7.23c-1.156 0-2.024-.993-2.024-2.086v-5.164h11.278v5.164c0 1.093-.868 2.086-2.024 2.086zm27.388 0h-7.23c-1.156 0-2.023-.993-2.023-2.086v-5.164h11.278v5.164c0 1.093-.868 2.086-2.025 2.086z" stroke-width="2" stroke-miterlimit="10"></path>
    <path d="M26.023 50.944c-2.491 0-6.28-2.523-7.874-6.662-1.296-3.33-1.396-7.368-.2-10.9.898-2.625 2.592-4.845 4.287-6.965.598-.807 1.296-1.615 1.894-2.422l.398-.505c4.785-7.469.598-10.194.898-10.396.199-.202 10.366 2.322 10.366 11.204.598-1.11 1.396-2.019 2.093-2.524.3-.201.599-.201.798 0 .299.101.398.404.398.707-.1 2.826.599 6.258 1.994 9.084l.598 1.211c.897 1.716 1.794 3.432 1.994 5.652.299 4.34-1.794 9.892-6.978 11.81-.398.202-1.395.403-2.193.403-1.894 0-2.093-1.11-2.093-1.514 0-.908.897-1.514 1.395-1.817l.2-.1c1.694-1.313 2.691-3.937 2.293-6.157-.2-.909-.499-1.716-.898-2.726-.398-1.009-.996-3.028-.996-3.028s-2.99 2.827-1.595 6.46c-1.695-1.211-2.791-2.624-2.99-4.34-.2-.908-.2-1.817-.2-2.624v-1.716c0-1.312 0-2.422-.299-3.23-.2 1.01-.698 2.019-.997 2.624a11.077 11.077 0 0 1-1.395 2.12c-.3.404-.598.807-.997 1.312-.997 1.615-3.19 5.753-.897 9.488.797 1.211 1.595 1.817 2.193 2.321.598.404 1.196.909.997 1.817-.3.808-1.097 1.413-2.194 1.413zm4.38 20.14c2.447 0 4.43-2.164 4.43-4.834 0-2.67-1.983-4.833-4.43-4.833-2.447 0-4.43 2.164-4.43 4.833 0 2.67 1.983 4.834 4.43 4.834z" stroke-width="2" stroke-miterlimit="10"></path>
  </symbol>
  <symbol viewBox="0 0 70 92" fill="none" xmlns="http://www.w3.org/2000/svg" id="icon6">
    <path d="M61.7 90.2H7.4c-3.5 0-6.4-2.9-6.4-6.4V7.4C1 3.9 3.9 1 7.4 1h34.9l25.8 23.8v58.9c0 3.6-2.9 6.5-6.4 6.5z" stroke-width="2" stroke-miterlimit="10"></path>
    <path d="M42.299 1v23.8h25.8" stroke-width="2" stroke-miterlimit="10"></path>
    <path d="M12.6 42.2h43.9m-43.9 7.9h43.9m-43.9 7.8h29.7m-29.7 7.9h24.1" stroke-width="2" stroke-miterlimit="10" stroke-linecap="round" stroke-linejoin="round"></path>
  </symbol>
  <symbol viewBox="0 0 88 75" fill="none" xmlns="http://www.w3.org/2000/svg" id="icon7">
    <path d="M1 1h14l4 10m12 30l-5 12h50M31 41L19 11m12 30l50-4 6-26H68m-49 0h20" stroke-width="2" stroke-linecap="round" stroke-linejoin="round"></path>
    <circle cx="36" cy="68" r="6" stroke-width="2"></circle>
    <circle cx="66" cy="68" r="6" stroke-width="2"></circle>
    <path d="M54.162 3v27m0 0L47 17.674M54.162 30L61 17.674" stroke-width="2" stroke-linecap="round" stroke-linejoin="round"></path>
  </symbol>
  <symbol viewBox="0 0 88 75" fill="none" xmlns="http://www.w3.org/2000/svg" id="icon8">
    <path d="M1 1h14l4 10m12 30l-5 12h50M31 41L19 11m12 30l50-4 6-26H68m-49 0h20" stroke-width="2" stroke-linecap="round" stroke-linejoin="round"></path>
    <circle cx="36" cy="68" r="6" stroke-width="2"></circle>
    <circle cx="66" cy="68" r="6" stroke-width="2"></circle>
    <path d="M53.838 30V3m0 0L61 15.326M53.838 3L47 15.326" stroke-width="2" stroke-linecap="round" stroke-linejoin="round"></path>
  </symbol>
  <symbol viewBox="0 0 90 77" fill="none" xmlns="http://www.w3.org/2000/svg" id="icon9">
    <path d="M29.715 27.03c.33-.33 10.33-17.49 15.288-26.03l15.7 26.03" stroke-width="2" stroke-linecap="round" stroke-linejoin="round"></path>
    <path d="M60.703 16.701v10.33l-9.09-4.958m13.844 13.221c.12.452 9.983 17.692 14.899 26.255l-30.394.583" stroke-width="2" stroke-linecap="round" stroke-linejoin="round"></path>
    <path d="M58.907 67.297l-8.946-5.165 8.84-5.393m-18.732 5.393c-.452-.12-20.313-.2-30.188-.224l14.693-26.613" stroke-width="2" stroke-linecap="round" stroke-linejoin="round"></path>
    <path d="M15.629 40.46l8.946-5.165.25 10.351" stroke-width="2" stroke-linecap="round" stroke-linejoin="round"></path>
  </symbol>
  <symbol viewBox="0 0 70 92" fill="none" xmlns="http://www.w3.org/2000/svg" id="icon10">
    <path d="M61.7 90.2H7.4c-3.5 0-6.4-2.9-6.4-6.4V7.4C1 3.9 3.9 1 7.4 1h34.9l25.8 23.8v58.9c0 3.6-2.9 6.5-6.4 6.5z" stroke-width="2" stroke-miterlimit="10"></path>
    <path d="M42.2 1v23.8h25.9" stroke-width="2" stroke-miterlimit="10"></path>
    <path d="M15.6 81.9s17.8-27 16.7-1.2c0 0 5.6-6.8 5.4-1.6 0 0 1.9-.9 1.6.6 0 0 1.1.8 2.1.1 0 0 7.1 2.6 12 .3M17.3 23.5a7.2 7.2 0 1 0 0-14.4 7.2 7.2 0 0 0 0 14.4z" stroke-width="2" stroke-miterlimit="10" stroke-linecap="round"
      stroke-linejoin="round"></path>
    <path d="M13.4 22.3v9.1l3.9-2.9 3.9 2.9v-9.1m-8.6 19.9h43.8m-43.8 7.9h43.8m-43.8 7.8h43.8" stroke-width="2" stroke-miterlimit="10" stroke-linecap="round" stroke-linejoin="round"></path>
  </symbol>
  <symbol viewBox="0 0 41 54" xmlns="http://www.w3.org/2000/svg" id="icon11">
    <path d="M40.206 54H.744a.692.692 0 0 1-.692-.692V.692C.052.31.362 0 .744 0h29.77a.692.692 0 1 1 0 1.385H1.435v51.23h38.077V11.077a.692.692 0 1 1 1.385 0v42.23c0 .383-.31.693-.692.693z"></path>
    <path d="M40.206 11.77h-9.692a.692.692 0 0 1-.693-.693V.692A.693.693 0 0 1 31.02.22l9.692 10.384a.692.692 0 0 1-.506 1.165zm-9-1.385h7.407l-7.407-7.936v7.936zm-.693 14.538H9.744a.692.692 0 1 1 0-1.385h20.77a.692.692 0 1 1 0 1.385zm0 4.154H9.744a.692.692 0 1 1 0-1.385h20.77a.692.692 0 1 1 0 1.385zm0 4.153H9.744a.692.692 0 1 1 0-1.384h20.77a.692.692 0 1 1 0 1.384zm-4.846 4.847H9.744a.692.692 0 1 1 0-1.385h15.923a.692.692 0 1 1 0 1.385z"></path>
  </symbol>
  <symbol viewBox="0 0 75 65" fill="none" xmlns="http://www.w3.org/2000/svg" id="icon12">
    <path d="M1 49v9.107C1 61.321 3.67 64 6.876 64h61.248C71.33 64 74 61.321 74 58.107V49" stroke-width="2" stroke-miterlimit="10" stroke-linecap="round"></path>
    <path d="M21 31.299L38 46V1m17 30.299L38 46V1" stroke-width="2" stroke-miterlimit="10" stroke-linecap="round" stroke-linejoin="round"></path>
  </symbol>
  <symbol viewBox="0 0 18 14" fill="none" xmlns="http://www.w3.org/2000/svg" id="icon13">
    <path fill-rule="evenodd" clip-rule="evenodd" d="M6 10.6L1.8 6.4.4 7.8 6 13.4l12-12L16.6 0 6 10.6z" fill="#000"></path>
  </symbol>
  <symbol viewBox="0 0 20 31" xmlns="http://www.w3.org/2000/svg" id="icon14">
    <path d="M18.322 14.839c-.707-1.45-1.958-3.54-3.754-6.272-1.795-2.729-3.018-4.728-3.664-5.997-.557-1.153-.838-1.963-.838-2.436V0c-.47 1.77-1.62 4.062-3.444 6.867-2.62 4.072-4.09 6.421-4.413 7.042C.736 16.622 0 19.013 0 21.081c0 2.776.955 5.125 2.87 7.043C4.78 30.042 7.167 31 10.023 31c2.734 0 5.084-.938 7.038-2.812C19.02 26.314 20 23.942 20 21.08c0-1.86-.56-3.943-1.678-6.242zM9.025 28.466a6.74 6.74 0 0 1-4.783-1.987 6.781 6.781 0 0 1-1.98-4.8.864.864 0 1 1 1.726.001 5.048 5.048 0 0 0 5.037 5.053c.477 0 .863.389.863.867a.863.863 0 0 1-.863.866z" stroke='none'></path>
  </symbol>
  <symbol viewBox="0 0 56 42" xmlns="http://www.w3.org/2000/svg" id="icon15">
    <path stroke='none' d="M.636 0C.212.016.01.324 0 .636v40.728c0 .333.303.636.636.637h54.728a.661.661 0 0 0 .637-.637V.636A.661.661 0 0 0 55.364 0H.636zm.637 1.273h53.455v39.455H1.273V1.273zM7 5.727A.636.636 0 0 0 7 7h42a.636.636 0 1 0 0-1.273H7zm0 5.728a.636.636 0 0 0 0 1.272h42a.636.636 0 1 0 0-1.272H7zm21 5.727c-3.858 0-7 3.142-7 7 0 .318.038.629.08.935l-5.012 5.628c-.304.34-.073.985.378 1.054l3.361.556.557 3.381c.072.48.799.688 1.113.318l4.574-5.15a7.025 7.025 0 0 0 1.95.278 6.92 6.92 0 0 0 1.948-.278l4.574 5.15c.315.37 1.042.162 1.114-.318l.557-3.38 3.36-.557c.451-.07.683-.715.378-1.054l-5.011-5.628a6.96 6.96 0 0 0 .08-.935c0-3.858-3.142-7-7-7zm0 1.273a5.718 5.718 0 0 1 5.728 5.727A5.718 5.718 0 0 1 28 29.91a5.718 5.718 0 0 1-5.727-5.727A5.718 5.718 0 0 1 28 18.455zm-6.562 8.173a7.052 7.052 0 0 0 3.34 3.779l-3.36 3.778L21 31.699a.654.654 0 0 0-.537-.517l-2.665-.437 3.64-4.117zm13.105 0l3.66 4.117-2.666.437A.654.654 0 0 0 35 31.7l-.417 2.486-3.361-3.778a7.06 7.06 0 0 0 3.321-3.779z"></path>
  </symbol>
  <symbol viewBox="0 0 28 27" xmlns="http://www.w3.org/2000/svg" id="icon16">
    <path stroke='none' d="M28 2.893c0-.784-.313-1.447-.875-2.05C26.5.302 25.812 0 25 0H3C2.125 0 1.437.301.875.844.25 1.446 0 2.109 0 2.893v21.214c0 .844.25 1.507.875 2.05.563.602 1.25.843 2.125.843h12.313V16.333H11.5v-4.099h3.813V9.221c0-1.688.437-2.953 1.437-3.917 1-.965 2.313-1.447 4-1.447 1.25 0 2.375.06 3.25.181v3.616h-2.25c-.813 0-1.375.18-1.688.542-.25.362-.375.844-.375 1.447v2.591H24l-.563 4.099h-3.75V27H25c.813 0 1.5-.241 2.125-.844.563-.542.875-1.205.875-2.049V2.893z"></path>
  </symbol>
  <symbol viewBox="0 0 28 27" xmlns="http://www.w3.org/2000/svg" id="icon17">
    <path d="M26 0c.5 0 1 .241 1.375.603.375.361.625.843.625 1.326V25.07c0 .543-.25 1.025-.625 1.387A1.977 1.977 0 0 1 26 27H2c-.563 0-1.063-.18-1.438-.542C.188 26.096 0 25.614 0 25.07V1.93C0 1.446.188.964.563.603A2.07 2.07 0 0 1 2 0h24zM8.437 23.143H8.5V10.245H4.312v12.898h4.125zM6.376 8.498c.625 0 1.188-.181 1.688-.663.5-.482.75-1.025.75-1.627 0-.603-.25-1.146-.75-1.628S7 3.857 6.375 3.857c-.688 0-1.25.241-1.688.723C4.188 5.062 4 5.605 4 6.208c0 .602.188 1.145.688 1.627.437.482 1 .663 1.687.663zM24 23.143V16.09c0-1.988-.313-3.435-.875-4.399-.813-1.145-2.188-1.748-4.063-1.748-1 0-1.812.241-2.562.663-.625.362-1.125.844-1.375 1.386h-.063v-1.748h-4v12.898h4.126v-6.389c0-.964.124-1.747.437-2.29.375-.663 1.063-1.024 2.063-1.024.937 0 1.562.422 1.875 1.145.187.482.312 1.265.312 2.29v6.268H24z"
      stroke="none"></path>
  </symbol>
  <symbol viewBox="0 0 90 60" fill="none" xmlns="http://www.w3.org/2000/svg" id="icon18">
    <path d="M30.407 17.015c0 2.195-1.652 3.862-3.538 3.862-1.887 0-3.539-1.667-3.539-3.861 0-.32.122-.84.407-1.547.275-.685.666-1.461 1.118-2.264A45.28 45.28 0 0 1 26.87 10a45.07 45.07 0 0 1 2.013 3.205c.453.803.844 1.579 1.119 2.264.284.708.406 1.227.406 1.547zM12.097 51.83h-6.19a4 4 0 0 1-4-4V36.047a6 6 0 0 1 6-6H82.59a6 6 0 0 1 6 6V47.83a4 4 0 0 1-4 4h-4.045m-52.77 0h36.679" stroke-width="2"></path>
    <path d="M8.124 30.046H6.36a4 4 0 0 1-4-4V7a6 6 0 0 1 6-6h37.016a6 6 0 0 1 6 6v19.046a4 4 0 0 1-4 4h-.55m-29.838 0h20.74m13.74-18.877a1 1 0 0 1 1-1h15.794a8 8 0 0 1 7.267 4.655l6.962 15.13H51.468V11.169z" stroke-width="2"></path>
    <circle cx="20.061" cy="51.377" r="7.623" stroke-width="2"></circle>
    <path d="M79.421 51.377c0 4.262-3.26 7.623-7.169 7.623s-7.169-3.361-7.169-7.623c0-4.262 3.26-7.623 7.17-7.623 3.908 0 7.168 3.361 7.168 7.623zM51.375 30.954v19.97" stroke-width="2"></path>
  </symbol>
  <symbol viewBox="0 0 43 41" stroke='none' xmlns="http://www.w3.org/2000/svg" id="icon19">
    <path d="M21.544 10.801a4.96 4.96 0 0 1-4.956-4.956A4.96 4.96 0 0 1 21.544.891 4.962 4.962 0 0 1 26.5 5.845a4.962 4.962 0 0 1-4.956 4.956zm0-8.483a3.53 3.53 0 0 0-3.527 3.527 3.53 3.53 0 0 0 3.527 3.527 3.53 3.53 0 0 0 3.527-3.527 3.53 3.53 0 0 0-3.527-3.527zm1.29 38.562H20.26a3.178 3.178 0 0 1-3.155-2.805L15.659 27.88a4.61 4.61 0 0 1-1.928-3.235l-.94-6.77a5.16 5.16 0 0 1 5.117-5.785h1.19a2.06 2.06 0 0 1 1.63.788l.813 1.016.824-1.038a2.049 2.049 0 0 1 1.61-.777h1.2a5.16 5.16 0 0 1 5.12 5.737l-.943 6.838a4.668 4.668 0 0 1-1.924 3.26L25.98 38.102a3.173 3.173 0 0 1-3.145 2.778zm-3.728-27.359H17.91a3.73 3.73 0 0 0-3.698 4.145l.938 6.795a3.202 3.202 0 0 0 1.54 2.385c.184.11.31.298.34.513l1.49 10.531a1.75 1.75 0 0 0 1.737 1.558h2.573c.88 0 1.626-.66 1.73-1.531l1.495-10.522a.72.72 0 0 1 .34-.51 3.228 3.228 0 0 0 1.536-2.406l.943-6.812a3.737 3.737 0 0 0-3.702-4.158h-1.188a.635.635 0 0 0-.504.238l-1.38 1.738a.693.693 0 0 1-.556.272.718.718 0 0 1-.56-.268l-1.377-1.72a.644.644 0 0 0-.502-.249zM8.893 9.552a4.781 4.781 0 0 1-4.776-4.776A4.781 4.781 0 0 1 8.893 0a4.781 4.781 0 0 1 4.776 4.776 4.78 4.78 0 0 1-4.776 4.776zm0-8.124a3.352 3.352 0 0 0-3.348 3.348 3.35 3.35 0 0 0 3.348 3.348 3.35 3.35 0 0 0 3.348-3.348 3.35 3.35 0 0 0-3.348-3.348zm1.237 36.928H7.662a3.068 3.068 0 0 1-3.046-2.714L3.23 25.896a4.44 4.44 0 0 1-1.847-3.11l-.9-6.494a5.616 5.616 0 0 1-.035-.587 4.939 4.939 0 0 1 1.446-3.515 4.927 4.927 0 0 1 3.507-1.463H6.55c.586-.025 1.202.279 1.586.77l.752.94.762-.963.638.345.502.514-1.337 1.694a.712.712 0 0 1-1.118.004l-1.319-1.648a.581.581 0 0 0-.463-.227H5.405a3.54 3.54 0 0 0-3.505 3.93l.899 6.515a3.04 3.04 0 0 0 1.46 2.262.718.718 0 0 1 .339.511L6.033 35.46a1.643 1.643 0 0 0 1.63 1.467h2.465c.83 0 1.53-.624 1.626-1.45l1.009-7.098a.727.727 0 0 1 .808-.607.716.716 0 0 1 .607.81l-1.006 7.08a3.064 3.064 0 0 1-3.043 2.694zM34.194 9.552a4.781 4.781 0 0 1-4.778-4.776A4.781 4.781 0 0 1 34.194 0a4.781 4.781 0 0 1 4.777 4.776 4.781 4.781 0 0 1-4.777 4.776zm0-8.124a3.35 3.35 0 0 0-3.347 3.348 3.35 3.35 0 0 0 3.347 3.348 3.35 3.35 0 0 0 3.346-3.348 3.35 3.35 0 0 0-3.346-3.348zm1.23 36.928H32.96a3.068 3.068 0 0 1-3.047-2.715l-1.004-7.061a.717.717 0 0 1 .608-.81c.384-.04.754.216.809.608l1.006 7.08a1.64 1.64 0 0 0 1.628 1.467h2.465c.827 0 1.526-.618 1.626-1.44l1.433-10.077a.716.716 0 0 1 .34-.51 3.025 3.025 0 0 0 1.456-2.25l.904-6.518c.223-1.985-1.174-3.741-3.111-3.961a3.189 3.189 0 0 0-.391-.023h-1.147c-.138.051-.349.08-.461.218l-1.319 1.663a.709.709 0 0 1-.56.27.72.72 0 0 1-.56-.268l-1.324-1.653a.716.716 0 0 1 1.118-.893l.763.952.767-.965c.391-.484.938-.772 1.583-.756h1.143a4.975 4.975 0 0 1 4.926 5.53l-.913 6.59a4.437 4.437 0 0 1-1.845 3.098l-1.383 9.742a3.071 3.071 0 0 1-3.045 2.682z"></path>
  </symbol>
</svg>