<svg width="41" height="54" viewBox="0 0 41 54" fill="none" xmlns="http://www.w3.org/2000/svg">
<path d="M40.2056 54H0.744065C0.361427 54 0.0517578 53.6903 0.0517578 53.3077V0.692308C0.0517578 0.309669 0.361427 0 0.744065 0H30.5133C30.8959 0 31.2056 0.309669 31.2056 0.692308C31.2056 1.07495 30.8959 1.38462 30.5133 1.38462H1.43637V52.6154H39.5133V11.0769C39.5133 10.6943 39.823 10.3846 40.2056 10.3846C40.5882 10.3846 40.8979 10.6943 40.8979 11.0769V53.3077C40.8979 53.6903 40.5882 54 40.2056 54Z" fill="white"/>
<path d="M40.2059 11.7692H30.5136C30.131 11.7692 29.8213 11.4596 29.8213 11.0769V0.692315C29.8213 0.407707 29.9951 0.1528 30.2594 0.0479843C30.5244 -0.0561388 30.826 0.0128151 31.02 0.219677L40.7123 10.6043C40.9002 10.8058 40.9509 11.0998 40.8407 11.3527C40.7312 11.6056 40.4817 11.7692 40.2059 11.7692ZM31.2059 10.3846H38.613L31.2059 2.44877V10.3846Z" fill="white"/>
<path d="M30.5133 24.9227H9.74407C9.36143 24.9227 9.05176 24.613 9.05176 24.2304C9.05176 23.8478 9.36143 23.5381 9.74407 23.5381H30.5133C30.8959 23.5381 31.2056 23.8478 31.2056 24.2304C31.2056 24.613 30.8959 24.9227 30.5133 24.9227Z" fill="white"/>
<path d="M30.5133 29.077H9.74407C9.36143 29.077 9.05176 28.7673 9.05176 28.3847C9.05176 28.0021 9.36143 27.6924 9.74407 27.6924H30.5133C30.8959 27.6924 31.2056 28.0021 31.2056 28.3847C31.2056 28.7673 30.8959 29.077 30.5133 29.077Z" fill="white"/>
<path d="M30.5133 33.2303H9.74407C9.36143 33.2303 9.05176 32.9206 9.05176 32.538C9.05176 32.1554 9.36143 31.8457 9.74407 31.8457H30.5133C30.8959 31.8457 31.2056 32.1554 31.2056 32.538C31.2056 32.9206 30.8959 33.2303 30.5133 33.2303Z" fill="white"/>
<path d="M25.6671 38.077H9.74407C9.36143 38.077 9.05176 37.7673 9.05176 37.3847C9.05176 37.0021 9.36143 36.6924 9.74407 36.6924H25.6671C26.0498 36.6924 26.3594 37.0021 26.3594 37.3847C26.3594 37.7673 26.0498 38.077 25.6671 38.077Z" fill="white"/>
</svg>
