<svg width="20" height="31" viewBox="0 0 20 31" fill="none" xmlns="http://www.w3.org/2000/svg">
<path d="M18.3222 14.839C17.6149 13.3897 16.3643 11.2993 14.5682 8.56748C12.7725 5.83833 11.5498 3.83903 10.9036 2.57032C10.3474 1.41682 10.0662 0.606605 10.0662 0.134333V0C9.5958 1.77044 8.44559 4.06177 6.62165 6.86669C4.00229 10.9392 2.53276 13.2883 2.20925 13.909C0.73629 16.6221 0 19.0126 0 21.0811C0 23.8566 0.955269 26.2065 2.86962 28.1243C4.78131 30.0417 7.16681 31 10.0231 31C12.7569 31 15.1073 30.0623 17.0613 28.1878C19.0192 26.3144 20 23.942 20 21.0811C20.0004 19.2219 19.44 17.1376 18.3222 14.839ZM9.02508 28.4657C7.15994 28.4657 5.4638 27.7048 4.24225 26.4786C3.01955 25.2531 2.26075 23.5508 2.26113 21.6797C2.26113 21.2021 2.64759 20.814 3.12446 20.814C3.60133 20.814 3.98779 21.2021 3.98779 21.6797C3.98855 23.0782 4.55088 24.3361 5.46342 25.2539C6.37787 26.1697 7.63147 26.7327 9.0247 26.7335C9.50234 26.7335 9.88841 27.1216 9.88841 27.5996C9.88917 28.078 9.5031 28.4657 9.02508 28.4657Z" fill="black"/>
</svg>
