<svg width="61" height="85" viewBox="0 0 61 85" fill="none" xmlns="http://www.w3.org/2000/svg">
<path d="M59.2708 9.95906V8.92928C59.2708 6.86973 57.6265 5.22209 55.5711 5.22209H22.3763V1.82382C22.3763 1.30894 21.9652 1 21.5541 1H10.4549C9.94103 1 9.63273 1.41191 9.63273 1.82382V5.22209H4.69974C2.64433 5.22209 1 6.86973 1 8.92928V9.95906C1 11.8127 2.43878 13.3573 4.28865 13.6663V40.4405C2.43878 40.6464 1 42.1911 1 44.1476V45.1774C1 47.031 2.43878 48.5757 4.28865 48.7816V75.5558C2.43878 75.7618 1 77.3065 1 79.263V80.2928C1 82.3524 2.64433 84 4.69974 84H55.6739C57.7293 84 59.3736 82.3524 59.3736 80.2928V79.263C59.3736 77.4094 57.9348 75.8648 56.085 75.5558V48.7816C57.9348 48.5757 59.3736 47.031 59.3736 45.1774V44.1476C59.3736 42.294 57.9348 40.6464 56.085 40.4405V13.6663C57.8321 13.4603 59.2708 11.9156 59.2708 9.95906Z" stroke="black" stroke-width="1.5" stroke-miterlimit="10"/>
<path d="M39.7458 51.5607C39.7458 56.5036 35.7378 60.6227 30.702 60.6227C25.769 60.6227 21.6582 56.6066 21.6582 51.5607C21.6582 50.119 22.0693 48.5743 22.6859 47.3386C22.6859 47.3386 22.6859 47.3386 22.6859 47.2356L25.5635 40.851L30.5992 29.5234L38.5126 47.1326C38.5126 47.1326 38.5126 47.1326 38.5126 47.2356C39.3347 48.5743 39.7458 50.016 39.7458 51.5607Z" stroke="black" stroke-width="1.5" stroke-miterlimit="10"/>
<path d="M4.1875 13.667H56.0866" stroke="black" stroke-width="1.5" stroke-miterlimit="10"/>
<path d="M4.1875 75.5566H57.217" stroke="black" stroke-width="1.5" stroke-miterlimit="10"/>
<path d="M4.1875 40.4404H25.5638" stroke="black" stroke-width="1.5" stroke-miterlimit="10"/>
<path d="M4.80469 48.6797H21.9674" stroke="black" stroke-width="1.5" stroke-miterlimit="10"/>
<path d="M56.0856 40.4404H35.8398" stroke="black" stroke-width="1.5" stroke-miterlimit="10"/>
<path d="M56.0851 48.7812H39.5391" stroke="black" stroke-width="1.5" stroke-miterlimit="10"/>
</svg>
