<svg width="54" height="41" viewBox="0 0 54 41" fill="none" xmlns="http://www.w3.org/2000/svg">
<path d="M0.00319233 31.8264C0.00319233 32.5923 0.307414 33.3267 0.848933 33.8682C1.39045 34.4098 2.12491 34.714 2.89073 34.714H5.30471C5.41968 36.2251 6.10113 37.6371 7.21265 38.6672C8.32417 39.6974 9.78375 40.2697 11.2992 40.2697C12.8147 40.2697 14.2743 39.6974 15.3858 38.6672C16.4974 37.6371 17.1788 36.2251 17.2938 34.714H35.4968C35.6118 36.2251 36.2932 37.6371 37.4047 38.6672C38.5163 39.6974 39.9758 40.2697 41.4913 40.2697C43.0068 40.2697 44.4664 39.6974 45.5779 38.6672C46.6894 37.6371 47.3709 36.2251 47.4859 34.714H50.7141C51.1027 34.7143 51.4874 34.6361 51.8451 34.4842C52.2028 34.3322 52.5261 34.1097 52.7957 33.8298C53.0653 33.55 53.2757 33.2185 53.4142 32.8554C53.5527 32.4924 53.6164 32.105 53.6017 31.7167L53.2147 21.3562C53.2099 21.2279 53.1624 21.1048 53.0798 21.0065C52.9971 20.9082 52.8841 20.8402 52.7585 20.8134L52.2156 20.7094L49.0971 10.7821V7.45562C49.0971 6.6898 48.7929 5.95534 48.2514 5.41382C47.7099 4.87231 46.9754 4.56808 46.2096 4.56808H33.8163V2.88754C33.8163 2.12171 33.512 1.38726 32.9705 0.84574C32.429 0.304221 31.6945 0 30.9287 0H2.89073C2.12491 0 1.39045 0.304221 0.848933 0.84574C0.307414 1.38726 0.00319233 2.12171 0.00319233 2.88754V22.748C-0.00106411 22.7883 -0.00106411 22.829 0.00319233 22.8693V31.8264ZM11.2992 39.1088C10.3375 39.1088 9.39737 38.8236 8.59772 38.2893C7.79806 37.755 7.17481 36.9956 6.80677 36.107C6.43873 35.2185 6.34244 34.2408 6.53006 33.2975C6.71769 32.3543 7.1808 31.4879 7.86085 30.8078C8.5409 30.1278 9.40734 29.6646 10.3506 29.477C11.2938 29.2894 12.2716 29.3857 13.1601 29.7537C14.0486 30.1218 14.808 30.745 15.3424 31.5447C15.8767 32.3443 16.1619 33.2845 16.1619 34.2462C16.1603 35.5354 15.6475 36.7713 14.7359 37.6829C13.8244 38.5945 12.5884 39.1073 11.2992 39.1088ZM41.4971 39.1088C40.5354 39.1088 39.5952 38.8236 38.7956 38.2893C37.9959 37.755 37.3727 36.9956 37.0046 36.107C36.6366 35.2185 36.5403 34.2408 36.7279 33.2975C36.9156 32.3543 37.3787 31.4879 38.0587 30.8078C38.7388 30.1278 39.6052 29.6646 40.5485 29.477C41.4917 29.2894 42.4694 29.3857 43.358 29.7537C44.2465 30.1218 45.0059 30.745 45.5402 31.5447C46.0745 32.3443 46.3597 33.2845 46.3597 34.2462C46.3582 35.5354 45.8454 36.7713 44.9338 37.6829C44.0222 38.5945 42.7863 39.1073 41.4971 39.1088ZM50.9105 20.4149L39.9378 18.0644V11.4693H48.0922L50.9105 20.4149ZM46.2096 5.7231C46.6691 5.7231 47.1097 5.90563 47.4347 6.23054C47.7596 6.55545 47.9421 6.99613 47.9421 7.45562V10.3143H39.3488C39.1956 10.3143 39.0487 10.3751 38.9404 10.4834C38.8321 10.5917 38.7713 10.7386 38.7713 10.8918V18.538C38.7683 18.6723 38.8122 18.8034 38.8955 18.9088C38.9788 19.0142 39.0962 19.0873 39.2275 19.1155L52.0828 21.8644L52.4524 31.7745C52.461 32.0073 52.4225 32.2394 52.3392 32.457C52.256 32.6746 52.1297 32.8731 51.968 33.0408C51.8063 33.2085 51.6124 33.3418 51.3979 33.4328C51.1835 33.5238 50.9529 33.5707 50.7199 33.5705H47.4743C47.3093 32.1 46.6082 30.7418 45.505 29.7555C44.4019 28.7692 42.974 28.224 41.4942 28.224C40.0145 28.224 38.5866 28.7692 37.4834 29.7555C36.3802 30.7418 35.6792 32.1 35.5141 33.5705H17.2764C17.1057 32.105 16.4026 30.7533 15.3006 29.7723C14.1986 28.7913 12.7746 28.2492 11.2992 28.2492C9.82385 28.2492 8.39987 28.7913 7.2979 29.7723C6.19593 30.7533 5.49277 32.105 5.32204 33.5705H2.89073C2.43124 33.5705 1.99056 33.388 1.66565 33.0631C1.34074 32.7382 1.15821 32.2975 1.15821 31.838V23.3255H33.2388C33.3919 23.3255 33.5388 23.2647 33.6471 23.1564C33.7554 23.0481 33.8163 22.9012 33.8163 22.748V5.7231H46.2096ZM1.16398 2.88754C1.16398 2.42804 1.34652 1.98737 1.67143 1.66246C1.99634 1.33755 2.43701 1.15501 2.89651 1.15501H30.9287C31.3882 1.15501 31.8289 1.33755 32.1538 1.66246C32.4787 1.98737 32.6612 2.42804 32.6612 2.88754V22.1705H1.15821L1.16398 2.88754Z" fill="white"/>
</svg>
