<svg width="56" height="42" viewBox="0 0 56 42" fill="none" xmlns="http://www.w3.org/2000/svg">
<path d="M0.636371 0C0.212357 0.0161638 0.00980011 0.324358 0 0.636371V41.3641C6.36371e-05 41.6973 0.303167 42.0004 0.636371 42.0005H55.3643C55.6975 42.0004 56.0006 41.6973 56.0006 41.3641V0.636371C56.0006 0.30318 55.6975 3.18185e-05 55.3643 0H0.636371ZM1.27274 1.27274H54.7279V40.7278H1.27274V1.27274ZM7.00008 5.72734C6.64867 5.72734 6.36371 6.01225 6.36371 6.36371C6.36371 6.71516 6.64867 7.00008 7.00008 7.00008H49.0005C49.352 7.00008 49.6369 6.71516 49.6369 6.36371C49.6369 6.01225 49.352 5.72734 49.0005 5.72734H7.00008ZM7.00008 11.4547C6.64867 11.4547 6.36371 11.7396 6.36371 12.091C6.36371 12.4425 6.64867 12.7274 7.00008 12.7274H49.0005C49.352 12.7274 49.6369 12.4425 49.6369 12.091C49.6369 11.7396 49.352 11.4547 49.0005 11.4547H7.00008ZM28.0003 17.182C24.1419 17.182 21.0002 20.3236 21.0002 24.1821C21.0002 24.4995 21.0384 24.8105 21.0798 25.1168L16.0684 30.7447C15.7639 31.0843 15.9953 31.7299 16.4462 31.7986L19.807 32.3555L20.3639 35.7362C20.436 36.2159 21.1628 36.4235 21.4775 36.0544L26.0514 30.9038C26.6684 31.0824 27.3268 31.1822 28.0003 31.1822C28.6793 31.1822 29.3278 31.0851 29.9492 30.9038L34.5231 36.0544C34.8378 36.4235 35.5646 36.2159 35.6368 35.7362L36.1936 32.3555L39.5544 31.7986C40.0053 31.7299 40.2368 31.0843 39.9323 30.7447L34.9208 25.1168C34.9622 24.8105 35.0004 24.4995 35.0004 24.1821C35.0004 20.3236 31.8588 17.182 28.0003 17.182ZM28.0003 18.4548C31.171 18.4548 33.7276 21.0114 33.7276 24.1821C33.7276 27.3527 31.171 29.9094 28.0003 29.9094C24.8297 29.9094 22.273 27.3527 22.273 24.1821C22.273 21.0114 24.8297 18.4548 28.0003 18.4548ZM21.4377 26.6281C22.0476 28.2596 23.2475 29.6106 24.7787 30.4066L21.4178 34.185L21.0002 31.6993C20.9531 31.438 20.7261 31.2194 20.4633 31.1822L17.7985 30.7447L21.4377 26.6281ZM34.543 26.6281L38.2021 30.7447L35.5374 31.1822C35.2745 31.2197 35.0475 31.438 35.0004 31.6993L34.5828 34.185L31.2219 30.4066C32.7461 29.6102 33.9346 28.2537 34.543 26.6281Z" fill="white"/>
</svg>
